<svg width="24" height="12" viewBox="0 0 24 12" fill="none" xmlns="http://www.w3.org/2000/svg">
<path d="M0.74998 1.49996H23.25C23.664 1.49996 23.9999 1.16394 23.9999 0.749981C23.9999 0.335964 23.6639 0 23.25 0H0.74998C0.335964 0 0 0.336027 0 0.749981C0 1.16394 0.336026 1.49996 0.74998 1.49996Z" fill="white"/>
<path d="M23.25 5.25H0.74998C0.335964 5.25 0 5.58603 0 5.99998C0 6.41394 0.336026 6.74996 0.74998 6.74996H23.25C23.664 6.74996 23.9999 6.41394 23.9999 5.99998C23.9999 5.58603 23.664 5.25 23.25 5.25Z" fill="white"/>
<path d="M23.25 10.5H8.24998C7.83596 10.5 7.5 10.836 7.5 11.25C7.5 11.664 7.83603 12 8.24998 12H23.25C23.664 12 24 11.6639 24 11.25C24 10.836 23.664 10.5 23.25 10.5Z" fill="white"/>
</svg>
