<svg width="126" height="16" viewBox="0 0 126 16" fill="none" xmlns="http://www.w3.org/2000/svg">
<path d="M12.4066 0.156206V3.63738H8.31457V15.8884H4.04846V3.63738H0V0.156206H12.4066Z" fill="white"/>
<path d="M18.4687 0.156206V15.8884H14.2026V0.156206H18.4687Z" fill="white"/>
<path d="M20.5934 7.98884C20.5934 6.44165 20.9054 5.06555 21.5294 3.86053C22.1678 2.64063 23.0675 1.69595 24.2283 1.0265C25.3892 0.342166 26.7242 0 28.2333 0C30.1487 0 31.7593 0.528126 33.0653 1.58438C34.3712 2.62575 35.2129 4.04649 35.5901 5.84658H30.9975C30.7218 5.25151 30.3373 4.79777 29.8439 4.48535C29.3651 4.17294 28.8064 4.01674 28.168 4.01674C27.1812 4.01674 26.3904 4.38122 25.7955 5.11018C25.2151 5.82427 24.9248 6.78382 24.9248 7.98884C24.9248 9.20874 25.2151 10.1832 25.7955 10.9121C26.3904 11.6262 27.1812 11.9833 28.168 11.9833C28.8064 11.9833 29.3651 11.8271 29.8439 11.5146C30.3373 11.2022 30.7218 10.7485 30.9975 10.1534H35.5901C35.2129 11.9535 34.3712 13.3817 33.0653 14.4379C31.7593 15.4793 30.1487 16 28.2333 16C26.7242 16 25.3892 15.6653 24.2283 14.9958C23.0675 14.3115 22.1678 13.3668 21.5294 12.1618C20.9054 10.9419 20.5934 9.55091 20.5934 7.98884Z" fill="white"/>
<path d="M46.9043 15.8884L42.0941 8.99303V15.8884H37.8279V0.156206H42.0941V6.94003L46.8608 0.156206H51.7799L46.1425 7.78801L52.0628 15.8884H46.9043Z" fill="white"/>
<path d="M58.1047 3.65969V6.22594H63.0021V9.55091H58.1047V12.3849H63.6551V15.8884H53.8386V0.156206H63.6551V3.65969H58.1047Z" fill="white"/>
<path d="M77.5385 0.156206V3.63738H73.4465V15.8884H69.1804V3.63738H65.1319V0.156206H77.5385Z" fill="white"/>
<path d="M111.905 0V16H107.237V7.17163L104.071 16H100.165L96.9747 7.10355V16H92.3076V0H97.951L102.166 10.3943L106.285 0H111.905Z" fill="white"/>
<path d="M119.466 3.56312V6.17305H124.824V9.55461H119.466V12.4369H125.538V16H114.799V0H125.538V3.56312H119.466Z" fill="white"/>
<path d="M82.4614 0H87.3845V16H82.4614V0Z" fill="#905CFF"/>
</svg>
